<svg width="64" height="64" viewBox="0 0 64 64" fill="none" xmlns="http://www.w3.org/2000/svg">
<path d="M39.4697 9.65039L49.4597 19.6304L39.4697 19.6604V9.65039Z" fill="#D4D4D4"/>
<path d="M48 19H42C41.4696 19 40.9609 18.7893 40.5858 18.4142C40.2107 18.0391 40 17.5304 40 17V11C40 10.4696 39.7893 9.96086 39.4142 9.58579C39.0391 9.21071 38.5304 9 38 9H16C15.4696 9 14.9609 9.21071 14.5858 9.58579C14.2107 9.96086 14 10.4696 14 11V53C14 53.5304 14.2107 54.0391 14.5858 54.4142C14.9609 54.7893 15.4696 55 16 55H48C48.5304 55 49.0391 54.7893 49.4142 54.4142C49.7893 54.0391 50 53.5304 50 53V21C50 20.4696 49.7893 19.9609 49.4142 19.5858C49.0391 19.2107 48.5304 19 48 19Z" fill="#F7F7F7"/>
<path d="M39 33H11C10.4477 33 10 33.4477 10 34V46C10 46.5523 10.4477 47 11 47H39C39.5523 47 40 46.5523 40 46V34C40 33.4477 39.5523 33 39 33Z" fill="#A6A6A6"/>
<path d="M23.8101 42.9207C22.9968 43.3488 22.089 43.5654 21.1701 43.5507C20.709 43.556 20.251 43.4746 19.8201 43.3107C19.4253 43.1609 19.0647 42.9331 18.7601 42.6407C18.4621 42.3576 18.2241 42.0175 18.0601 41.6407C17.8874 41.2084 17.8024 40.7461 17.8101 40.2807C17.8024 39.8056 17.8873 39.3334 18.0601 38.8907C18.2116 38.4903 18.447 38.127 18.7506 37.8252C19.0542 37.5233 19.4188 37.29 19.8201 37.1407C20.253 36.985 20.71 36.9072 21.1701 36.9107C21.6324 36.9038 22.0934 36.961 22.5401 37.0807C22.9666 37.1998 23.3601 37.4154 23.6901 37.7107L22.8501 38.5507C22.6374 38.3485 22.3855 38.1919 22.1101 38.0907C21.8111 37.9859 21.4968 37.9318 21.1801 37.9307C20.8738 37.9254 20.5701 37.9868 20.2901 38.1107C20.0286 38.22 19.7935 38.3837 19.6001 38.5907C19.4067 38.8045 19.2542 39.0519 19.1501 39.3207C19.0477 39.6062 18.9969 39.9075 19.0001 40.2107C18.9962 40.5303 19.047 40.8482 19.1501 41.1507C19.2516 41.4268 19.4042 41.6812 19.6001 41.9007C19.7915 42.115 20.0268 42.2856 20.2901 42.4007C20.5701 42.5246 20.8738 42.586 21.1801 42.5807C21.4559 42.5821 21.731 42.5519 22.0001 42.4907C22.2394 42.447 22.4694 42.3625 22.6801 42.2407V40.7407H21.3701V39.7407H23.8101V42.9207Z" fill="white"/>
<path d="M25.3496 37H26.4796V43.37H25.3496V37Z" fill="white"/>
<path d="M28.0996 37H32.2196V38H29.2196V39.68H32.0296V40.68H29.2396V43.33H28.0996V37Z" fill="white"/>
</svg>
