<svg width="64" height="64" viewBox="0 0 64 64" fill="none" xmlns="http://www.w3.org/2000/svg">
<path d="M39.4697 9.65039L49.4597 19.6304L39.4697 19.6604V9.65039Z" fill="#D4D4D4"/>
<path d="M48 19H42C41.4696 19 40.9609 18.7893 40.5858 18.4142C40.2107 18.0391 40 17.5304 40 17V11C40 10.4696 39.7893 9.96086 39.4142 9.58579C39.0391 9.21071 38.5304 9 38 9H16C15.4696 9 14.9609 9.21071 14.5858 9.58579C14.2107 9.96086 14 10.4696 14 11V53C14 53.5304 14.2107 54.0391 14.5858 54.4142C14.9609 54.7893 15.4696 55 16 55H48C48.5304 55 49.0391 54.7893 49.4142 54.4142C49.7893 54.0391 50 53.5304 50 53V21C50 20.4696 49.7893 19.9609 49.4142 19.5858C49.0391 19.2107 48.5304 19 48 19Z" fill="#F7F7F7"/>
<path d="M39 33H11C10.4477 33 10 33.4477 10 34V46C10 46.5523 10.4477 47 11 47H39C39.5523 47 40 46.5523 40 46V34C40 33.4477 39.5523 33 39 33Z" fill="#A6A6A6"/>
<path d="M17.25 41.63C17.2513 41.876 17.2072 42.12 17.12 42.35C17.0443 42.5794 16.9217 42.7906 16.76 42.97C16.6003 43.1558 16.3978 43.2999 16.17 43.39C15.9048 43.5033 15.6182 43.5578 15.33 43.55C14.8901 43.5668 14.4561 43.4443 14.09 43.2C13.7431 42.9221 13.5174 42.5207 13.46 42.08L14.52 41.83C14.5481 42.024 14.6395 42.2033 14.78 42.34C14.916 42.4652 15.0951 42.5332 15.28 42.53C15.4101 42.5443 15.5415 42.5208 15.6586 42.4623C15.7757 42.4038 15.8734 42.3127 15.94 42.2C16.067 41.9141 16.1252 41.6025 16.11 41.29V37H17.25V41.63Z" fill="white"/>
<path d="M18.8496 37H20.9996C21.2986 36.9992 21.5968 37.0294 21.8896 37.09C22.1555 37.1444 22.4096 37.246 22.6396 37.39C22.8571 37.5344 23.0357 37.7302 23.1596 37.96C23.2969 38.2324 23.3623 38.5353 23.3496 38.84C23.3702 39.1861 23.2977 39.5314 23.1396 39.84C23.0098 40.0811 22.816 40.2818 22.5796 40.42C22.3277 40.5573 22.0535 40.6487 21.7696 40.69C21.4388 40.7409 21.1043 40.7643 20.7696 40.76H19.9996V43.4H18.8496V37ZM20.6696 39.76C20.8361 39.7698 21.0031 39.7698 21.1696 39.76C21.3333 39.748 21.4947 39.7144 21.6496 39.66C21.7912 39.5984 21.915 39.5021 22.0096 39.38C22.1106 39.2336 22.1598 39.0576 22.1496 38.88C22.1579 38.7148 22.1161 38.551 22.0296 38.41C21.944 38.2937 21.8305 38.2009 21.6996 38.14C21.5599 38.0778 21.4115 38.0374 21.2596 38.02H20.7896H19.9996V39.81L20.6696 39.76Z" fill="white"/>
<path d="M24.5703 37H28.7903V38H25.7103V39.57H28.6303V40.57H25.7103V42.29H29.0003V43.29H24.5703V37Z" fill="white"/>
<path d="M36.0004 42.9199C35.1864 43.346 34.2791 43.5625 33.3604 43.5499C32.896 43.5565 32.4345 43.475 32.0004 43.3099C31.6014 43.1626 31.2372 42.9345 30.9304 42.6399C30.6346 42.3572 30.3998 42.0168 30.2404 41.6399C30.0645 41.1914 29.9828 40.7114 30.0004 40.2299C29.9959 39.7541 30.0842 39.282 30.2604 38.8399C30.4097 38.4415 30.6421 38.0795 30.9421 37.7777C31.2421 37.476 31.6029 37.2416 32.0004 37.0899C32.4333 36.9342 32.8904 36.8564 33.3504 36.8599C33.8127 36.853 34.2738 36.9102 34.7204 37.0299C35.1439 37.1491 35.5341 37.3648 35.8604 37.6599L35.0004 38.4999C34.7893 38.2956 34.537 38.1388 34.2604 38.0399C33.9648 37.9359 33.6538 37.8818 33.3404 37.8799C33.031 37.8757 32.7243 37.937 32.4404 38.0599C32.1802 38.175 31.946 38.3415 31.7518 38.5495C31.5576 38.7574 31.4074 39.0025 31.3104 39.2699C31.1999 39.5535 31.1456 39.8557 31.1504 40.1599C31.1449 40.4805 31.1991 40.7993 31.3104 41.0999C31.4032 41.3801 31.5569 41.6362 31.7604 41.8499C31.9509 42.0609 32.1822 42.231 32.4404 42.3499C32.7243 42.4728 33.031 42.5342 33.3404 42.5299C33.6124 42.5301 33.8837 42.5033 34.1504 42.4499C34.3895 42.4001 34.619 42.3123 34.8304 42.1899V40.6899H33.5304V39.6899H36.0004V42.9199Z" fill="white"/>
</svg>
