<svg width="64" height="64" viewBox="0 0 64 64" fill="none" xmlns="http://www.w3.org/2000/svg">
<path d="M39.4697 9.65039L49.4597 19.6304L39.4697 19.6604V9.65039Z" fill="#D4D4D4"/>
<path d="M48 19H42C41.4696 19 40.9609 18.7893 40.5858 18.4142C40.2107 18.0391 40 17.5304 40 17V11C40 10.4696 39.7893 9.96086 39.4142 9.58579C39.0391 9.21071 38.5304 9 38 9H16C15.4696 9 14.9609 9.21071 14.5858 9.58579C14.2107 9.96086 14 10.4696 14 11V53C14 53.5304 14.2107 54.0391 14.5858 54.4142C14.9609 54.7893 15.4696 55 16 55H48C48.5304 55 49.0391 54.7893 49.4142 54.4142C49.7893 54.0391 50 53.5304 50 53V21C50 20.4696 49.7893 19.9609 49.4142 19.5858C49.0391 19.2107 48.5304 19 48 19Z" fill="#F7F7F7"/>
<path d="M39 33H11C10.4477 33 10 33.4477 10 34V46C10 46.5523 10.4477 47 11 47H39C39.5523 47 40 46.5523 40 46V34C40 33.4477 39.5523 33 39 33Z" fill="#A6A6A6"/>
<path d="M14.5996 37H16.3196L17.9996 41.48L19.7396 37H21.4496V43.37H20.3696V38.1L18.4296 43.39H17.6396L15.6896 38.1V43.39H14.5996V37Z" fill="white"/>
<path d="M22.7896 40.2299C22.7691 39.7574 22.8404 39.2853 22.9996 38.8399C23.1575 38.4393 23.3958 38.0752 23.6996 37.7699C24.0021 37.4724 24.363 37.2409 24.7596 37.0899C25.1925 36.9342 25.6495 36.8564 26.1096 36.8599C26.5763 36.8424 27.0418 36.9172 27.4796 37.0799C27.8811 37.222 28.2464 37.4507 28.5496 37.7499C28.8559 38.0492 29.0946 38.4107 29.2496 38.8099C29.4233 39.2489 29.5083 39.7179 29.4996 40.1899C29.5083 40.6554 29.4233 41.1179 29.2496 41.5499C29.0958 41.9494 28.8582 42.3114 28.5529 42.6115C28.2477 42.9117 27.8817 43.143 27.4796 43.2899C27.0445 43.466 26.5789 43.5544 26.1096 43.5499C25.6485 43.5552 25.1906 43.4738 24.7596 43.3099C24.3613 43.1639 23.9985 42.9352 23.6951 42.6387C23.3917 42.3422 23.1546 41.9847 22.9996 41.5899C22.8405 41.1549 22.7691 40.6927 22.7896 40.2299ZM23.9996 40.1599C23.999 40.4801 24.0531 40.798 24.1596 41.0999C24.2574 41.3777 24.4104 41.6329 24.6096 41.8499C24.801 42.0642 25.0363 42.2347 25.2996 42.3499C25.5796 42.4738 25.8833 42.5352 26.1896 42.5299C26.4989 42.5342 26.8056 42.4728 27.0896 42.3499C27.3528 42.2347 27.5882 42.0642 27.7796 41.8499C27.9787 41.6329 28.1318 41.3777 28.2296 41.0999C28.3361 40.798 28.3902 40.4801 28.3896 40.1599C28.3895 39.8561 28.3353 39.5547 28.2296 39.2699C28.1294 38.9992 27.9764 38.7511 27.7796 38.5399C27.5862 38.3328 27.351 38.1692 27.0896 38.0599C26.8056 37.937 26.4989 37.8757 26.1896 37.8799C25.8833 37.8746 25.5796 37.936 25.2996 38.0599C25.0382 38.1692 24.803 38.3328 24.6096 38.5399C24.4127 38.7511 24.2598 38.9992 24.1596 39.2699C24.0538 39.5547 23.9997 39.8561 23.9996 40.1599Z" fill="white"/>
<path d="M30.1104 37H31.4204L33.1504 41.81L35.0004 37H36.2204L33.6404 43.37H32.6404L30.1104 37Z" fill="white"/>
</svg>
