<svg width="64" height="64" viewBox="0 0 64 64" fill="none" xmlns="http://www.w3.org/2000/svg">
<path d="M39.4697 9.65039L49.4597 19.6304L39.4697 19.6604V9.65039Z" fill="#D4D4D4"/>
<path d="M48 19H42C41.4696 19 40.9609 18.7893 40.5858 18.4142C40.2107 18.0391 40 17.5304 40 17V11C40 10.4696 39.7893 9.96086 39.4142 9.58579C39.0391 9.21071 38.5304 9 38 9H16C15.4696 9 14.9609 9.21071 14.5858 9.58579C14.2107 9.96086 14 10.4696 14 11V53C14 53.5304 14.2107 54.0391 14.5858 54.4142C14.9609 54.7893 15.4696 55 16 55H48C48.5304 55 49.0391 54.7893 49.4142 54.4142C49.7893 54.0391 50 53.5304 50 53V21C50 20.4696 49.7893 19.9609 49.4142 19.5858C49.0391 19.2107 48.5304 19 48 19Z" fill="#F7F7F7"/>
<path d="M39 33H11C10.4477 33 10 33.4477 10 34V46C10 46.5523 10.4477 47 11 47H39C39.5523 47 40 46.5523 40 46V34C40 33.4477 39.5523 33 39 33Z" fill="#A6A6A6"/>
<path d="M15.9297 37H17.6597L19.3597 41.46L21.0797 37H22.7897V43.37H21.7097V38.1L19.7797 43.39H18.9997L16.9997 38.1V43.39H15.9297V37Z" fill="white"/>
<path d="M24.46 37H26.61C26.9056 36.9992 27.2006 37.0294 27.49 37.09C27.7569 37.1408 28.0116 37.2426 28.24 37.39C28.4597 37.5318 28.6389 37.7282 28.76 37.96C28.9007 38.2315 28.9695 38.5344 28.96 38.84C28.9806 39.1861 28.9081 39.5314 28.75 39.84C28.6173 40.0791 28.4242 40.2791 28.19 40.42C27.9381 40.5573 27.6638 40.6487 27.38 40.69C27.0491 40.7405 26.7146 40.7639 26.38 40.76H25.6V43.4H24.46V37ZM26.28 39.76H26.79C26.9549 39.7495 27.117 39.7124 27.27 39.65C27.4113 39.5927 27.5354 39.4997 27.63 39.38C27.7309 39.2335 27.7802 39.0576 27.77 38.88C27.7802 38.7132 27.7344 38.5478 27.64 38.41C27.5607 38.2918 27.4498 38.1983 27.32 38.14C27.182 38.0732 27.0328 38.0325 26.88 38.02H26.41H25.6V39.81L26.28 39.76Z" fill="white"/>
<path d="M31.4804 39.5809H31.7504H32.2104C32.3466 39.5651 32.4788 39.5244 32.6004 39.4609C32.7188 39.4021 32.8191 39.3122 32.8904 39.2009C32.9679 39.0603 33.0059 38.9013 33.0004 38.7409C33.0044 38.6278 32.9832 38.5153 32.9382 38.4115C32.8932 38.3077 32.8257 38.2152 32.7404 38.1409C32.6539 38.059 32.5517 37.9955 32.44 37.9542C32.3283 37.913 32.2093 37.8948 32.0904 37.9009C31.8811 37.8964 31.6765 37.9634 31.5104 38.0909C31.3316 38.215 31.1982 38.394 31.1304 38.6009L30.0004 38.2809C30.0605 38.0583 30.1661 37.8506 30.3104 37.6709C30.4331 37.4979 30.5896 37.3517 30.7704 37.2409C30.9554 37.1254 31.1581 37.0409 31.3704 36.9909C31.8489 36.865 32.3519 36.865 32.8304 36.9909C33.0619 37.0565 33.279 37.165 33.4704 37.3109C33.6588 37.4509 33.8128 37.6322 33.9204 37.8409C34.0364 38.0701 34.0947 38.3241 34.0904 38.5809C34.094 38.9075 33.9923 39.2266 33.8004 39.4909C33.6097 39.7617 33.3241 39.9508 33.0004 40.0209C33.1816 40.0383 33.3571 40.0936 33.5156 40.1832C33.6741 40.2727 33.812 40.3946 33.9204 40.5409C34.1293 40.8324 34.2412 41.1822 34.2404 41.5409C34.2447 41.8212 34.183 42.0987 34.0604 42.3509C33.9505 42.5806 33.7898 42.7824 33.5904 42.9409C33.3829 43.0999 33.1495 43.2217 32.9004 43.3009C32.6379 43.3812 32.3649 43.4217 32.0904 43.4209C31.8376 43.4226 31.5856 43.3924 31.3404 43.3309C31.1182 43.2775 30.9056 43.1897 30.7104 43.0709C30.5169 42.949 30.3502 42.7891 30.2204 42.6009C30.0717 42.3965 29.9631 42.1657 29.9004 41.9209L31.0004 41.7009C31.0547 41.9342 31.1764 42.1463 31.3504 42.3109C31.5474 42.4629 31.7917 42.5408 32.0404 42.5309C32.1808 42.5295 32.3198 42.5023 32.4504 42.4509C32.5771 42.4102 32.6932 42.3419 32.7904 42.2509C32.8893 42.1661 32.9679 42.0601 33.0204 41.9409C33.0791 41.8121 33.1097 41.6724 33.1104 41.5309C33.1332 41.3469 33.0945 41.1606 33.0004 41.0009C32.916 40.8758 32.8029 40.773 32.6704 40.7009C32.5265 40.6275 32.3708 40.5801 32.2104 40.5609C32.0472 40.5514 31.8836 40.5514 31.7204 40.5609H31.4604L31.4804 39.5809Z" fill="white"/>
</svg>
