<svg width="64" height="64" viewBox="0 0 64 64" fill="none" xmlns="http://www.w3.org/2000/svg">
<path d="M39.5 9.59961L49.5 19.5996L39.5 19.6996V9.59961Z" fill="#D4D4D4"/>
<path d="M48 19H42C40.9 19 40 18.1 40 17V11C40 9.9 39.1 9 38 9H16C14.9 9 14 9.9 14 11V53C14 54.1 14.9 55 16 55H48C49.1 55 50 54.1 50 53V21C50 19.9 49.1 19 48 19Z" fill="#F7F7F7"/>
<path d="M39 47H11C10.4 47 10 46.6 10 46V34C10 33.4 10.4 33 11 33H39C39.6 33 40 33.4 40 34V46C40 46.6 39.6 47 39 47Z" fill="#A6A6A6"/>
<path d="M15.9004 37H17.6004L19.3004 41.5L21.0004 37H22.7004V43.4H21.6004V38.1L19.7004 43.4H19.0004L17.0004 38.1V43.4H15.9004V37Z" fill="white"/>
<path d="M24.5 37H26.6C26.9 37 27.2 37 27.5 37.1C27.8 37.2 28 37.3 28.3 37.4C28.5 37.5 28.7 37.7 28.8 38C28.9 38.2 29 38.5 29 38.9C29 39.3 28.9 39.6 28.8 39.9C28.7 40.1 28.5 40.3 28.2 40.5C28 40.6 27.7 40.7 27.4 40.8C27.1 40.9 26.8 40.9 26.4 40.9H25.6V43.5H24.5V37ZM26.3 39.8C26.5 39.8 26.6 39.8 26.8 39.8C27 39.8 27.1 39.8 27.3 39.7C27.4 39.6 27.6 39.6 27.7 39.4C27.8 39.3 27.8 39.1 27.8 38.9C27.8 38.7 27.8 38.5 27.7 38.4C27.6 38.3 27.5 38.2 27.4 38.1C27.3 38 27 38 26.9 38C26.8 38 26.6 38 26.4 38H25.6V39.8H26.3Z" fill="white"/>
<path d="M32.5008 42.1H29.8008V41L32.4008 37H33.6008V41.1H34.5008V42.1H33.6008V43.4H32.5008V42.1ZM32.5008 38.5L30.9008 41.1H32.5008V38.5Z" fill="white"/>
</svg>
