<svg width="64" height="64" viewBox="0 0 64 64" fill="none" xmlns="http://www.w3.org/2000/svg">
<path d="M39.4697 9.65039L49.4597 19.6304L39.4697 19.6604V9.65039Z" fill="#D4D4D4"/>
<path d="M48 19H42C41.4696 19 40.9609 18.7893 40.5858 18.4142C40.2107 18.0391 40 17.5304 40 17V11C40 10.4696 39.7893 9.96086 39.4142 9.58579C39.0391 9.21071 38.5304 9 38 9H16C15.4696 9 14.9609 9.21071 14.5858 9.58579C14.2107 9.96086 14 10.4696 14 11V53C14 53.5304 14.2107 54.0391 14.5858 54.4142C14.9609 54.7893 15.4696 55 16 55H48C48.5304 55 49.0391 54.7893 49.4142 54.4142C49.7893 54.0391 50 53.5304 50 53V21C50 20.4696 49.7893 19.9609 49.4142 19.5858C49.0391 19.2107 48.5304 19 48 19Z" fill="#F7F7F7"/>
<path d="M39 33H11C10.4477 33 10 33.4477 10 34V46C10 46.5523 10.4477 47 11 47H39C39.5523 47 40 46.5523 40 46V34C40 33.4477 39.5523 33 39 33Z" fill="#A6A6A6"/>
<path d="M16.7402 37H18.8802C19.1792 36.9992 19.4775 37.0294 19.7702 37.09C20.0362 37.1444 20.2902 37.246 20.5202 37.39C20.7282 37.5506 20.8931 37.7602 21.0002 38C21.1328 38.274 21.1979 38.5757 21.1902 38.88C21.2109 39.2261 21.1383 39.5714 20.9802 39.88C20.8504 40.1211 20.6567 40.3218 20.4202 40.46C20.1684 40.5973 19.8941 40.6887 19.6102 40.73C19.2794 40.7809 18.9449 40.8043 18.6102 40.8H17.8002V43.44H16.7402V37ZM18.5602 39.76H19.0602C19.2251 39.7495 19.3872 39.7124 19.5402 39.65C19.6831 39.5953 19.8078 39.5018 19.9002 39.38C20.0012 39.2336 20.0505 39.0576 20.0402 38.88C20.0485 38.7148 20.0067 38.551 19.9202 38.41C19.8346 38.2937 19.7212 38.2009 19.5902 38.14C19.4522 38.0732 19.3031 38.0325 19.1502 38.02H18.6802H17.8702V39.81L18.5602 39.76Z" fill="white"/>
<path d="M22.46 37.0001H25C25.4142 36.9972 25.8262 37.0614 26.22 37.1901C26.5885 37.3198 26.9282 37.5202 27.22 37.7801C27.5286 38.0582 27.7741 38.3992 27.94 38.7801C28.129 39.2256 28.221 39.7063 28.21 40.1901C28.2246 40.6817 28.1181 41.1693 27.9 41.6101C27.7114 41.9991 27.4381 42.3408 27.1 42.6101C26.7716 42.8711 26.399 43.0709 26 43.2001C25.6225 43.3249 25.2276 43.389 24.83 43.3901H22.46V37.0001ZM24.46 42.3401C24.797 42.3412 25.1328 42.3009 25.46 42.2201C25.7566 42.1513 26.0357 42.0219 26.28 41.8401C26.5147 41.6686 26.7036 41.4419 26.83 41.1801C26.9748 40.8673 27.0433 40.5246 27.03 40.1801C27.037 39.839 26.9793 39.4997 26.86 39.1801C26.7485 38.9204 26.5772 38.6908 26.36 38.5101C26.1336 38.3377 25.8753 38.2119 25.6 38.1401C25.2755 38.0447 24.938 38.0008 24.6 38.0101H23.6V42.3301L24.46 42.3401Z" fill="white"/>
<path d="M29.5195 37H33.6295V38H30.6295V39.68H33.4395V40.68H30.6495V43.33H29.5195V37Z" fill="white"/>
</svg>
