<svg width="64" height="64" viewBox="0 0 64 64" fill="none" xmlns="http://www.w3.org/2000/svg">
<path d="M39.4697 9.65039L49.4597 19.6304L39.4697 19.6604V9.65039Z" fill="#D4D4D4"/>
<path d="M48 19H42C41.4696 19 40.9609 18.7893 40.5858 18.4142C40.2107 18.0391 40 17.5304 40 17V11C40 10.4696 39.7893 9.96086 39.4142 9.58579C39.0391 9.21071 38.5304 9 38 9H16C15.4696 9 14.9609 9.21071 14.5858 9.58579C14.2107 9.96086 14 10.4696 14 11V53C14 53.5304 14.2107 54.0391 14.5858 54.4142C14.9609 54.7893 15.4696 55 16 55H48C48.5304 55 49.0391 54.7893 49.4142 54.4142C49.7893 54.0391 50 53.5304 50 53V21C50 20.4696 49.7893 19.9609 49.4142 19.5858C49.0391 19.2107 48.5304 19 48 19Z" fill="#F7F7F7"/>
<path d="M39 33H11C10.4477 33 10 33.4477 10 34V46C10 46.5523 10.4477 47 11 47H39C39.5523 47 40 46.5523 40 46V34C40 33.4477 39.5523 33 39 33Z" fill="#A6A6A6"/>
<path d="M15.6504 37H17.7904C18.0894 36.9987 18.3877 37.0289 18.6804 37.09C18.9474 37.1408 19.202 37.2427 19.4304 37.39C19.6739 37.5358 19.8715 37.7472 20.0004 38C20.1377 38.2724 20.2031 38.5753 20.1904 38.88C20.2141 39.2252 20.145 39.5705 19.9904 39.88C19.8578 40.1191 19.6647 40.3191 19.4304 40.46C19.175 40.5975 18.8975 40.6889 18.6104 40.73C18.2796 40.7815 17.9451 40.8049 17.6104 40.8H16.8004V43.44H15.6504V37ZM17.4704 39.76H17.9804C18.1453 39.7495 18.3074 39.7124 18.4604 39.65C18.5993 39.5886 18.7225 39.4962 18.8204 39.38C18.9214 39.2336 18.9706 39.0576 18.9604 38.88C18.9657 38.7138 18.9204 38.5499 18.8304 38.41C18.7511 38.2919 18.6402 38.1983 18.5104 38.14C18.3719 38.0746 18.2229 38.034 18.0704 38.02H17.6004H16.7904V39.81L17.4704 39.76Z" fill="white"/>
<path d="M21.3799 37H22.8799L25.9999 41.75V37H27.1299V43.37H25.6799L22.5299 38.5V43.39H21.3799V37Z" fill="white"/>
<path d="M34.4301 42.9207C33.6161 43.3468 32.7088 43.5633 31.7901 43.5507C31.329 43.556 30.8711 43.4746 30.4401 43.3107C30.0411 43.1634 29.6768 42.9353 29.3701 42.6407C29.0743 42.3579 28.8395 42.0176 28.6801 41.6407C28.504 41.2091 28.4156 40.7468 28.4201 40.2807C28.4156 39.8049 28.5039 39.3327 28.6801 38.8907C28.8316 38.4903 29.0671 38.127 29.3706 37.8252C29.6742 37.5233 30.0388 37.29 30.4401 37.1407C30.873 36.985 31.33 36.9072 31.7901 36.9107C32.2524 36.9038 32.7135 36.961 33.1601 37.0807C33.5827 37.2022 33.9724 37.4176 34.3001 37.7107L33.4601 38.5507C33.249 38.3464 32.9967 38.1895 32.7201 38.0907C32.4244 37.9866 32.1135 37.9326 31.8001 37.9307C31.4907 37.9265 31.184 37.9878 30.9001 38.1107C30.6423 38.2213 30.4106 38.3848 30.2201 38.5907C30.0232 38.8019 29.8703 39.05 29.7701 39.3207C29.6644 39.6055 29.6102 39.9069 29.6101 40.2107C29.6095 40.5309 29.6636 40.8488 29.7701 41.1507C29.8679 41.4286 30.021 41.6837 30.2201 41.9007C30.4106 42.1117 30.6419 42.2818 30.9001 42.4007C31.184 42.5236 31.4907 42.585 31.8001 42.5807C32.0727 42.5826 32.3446 42.5524 32.6101 42.4907C32.8501 42.4495 33.0805 42.3648 33.2901 42.2407V40.7407H32.0001V39.7407H34.4401L34.4301 42.9207Z" fill="white"/>
</svg>
