<svg width="64" height="64" viewBox="0 0 64 64" fill="none" xmlns="http://www.w3.org/2000/svg">
<path d="M39.5 9.59961L49.5 19.5996L39.5 19.6996V9.59961Z" fill="#D4D4D4"/>
<path d="M48 19H42C40.9 19 40 18.1 40 17V11C40 9.9 39.1 9 38 9H16C14.9 9 14 9.9 14 11V53C14 54.1 14.9 55 16 55H48C49.1 55 50 54.1 50 53V21C50 19.9 49.1 19 48 19Z" fill="#F7F7F7"/>
<path d="M39 47H11C10.4 47 10 46.6 10 46V34C10 33.4 10.4 33 11 33H39C39.6 33 40 33.4 40 34V46C40 46.6 39.6 47 39 47Z" fill="#A6A6A6"/>
<path d="M13.2998 37.6992H14.3998L15.4998 41.7992L16.7998 37.6992H17.7998L18.9998 41.7992L20.0998 37.6992H21.0998L19.4998 43.3992H18.4998L17.1998 39.0992L15.8998 43.3992H14.9998L13.2998 37.6992Z" fill="white"/>
<path d="M22 37.6992H25.8V38.5992H23V39.9992H25.6V40.8992H23V42.3992H25.9V43.2992H22V37.6992Z" fill="white"/>
<path d="M27.0996 37.6992H29.2996C29.4996 37.6992 29.6996 37.6992 29.8996 37.7992C30.0996 37.8992 30.2996 37.8992 30.4996 37.9992C30.6996 38.0992 30.7996 38.2992 30.8996 38.3992C30.9996 38.5992 31.0996 38.7992 31.0996 39.0992C31.0996 39.3992 30.9996 39.6992 30.7996 39.8992C30.5996 40.0992 30.3996 40.2992 30.0996 40.2992C30.2996 40.2992 30.3996 40.3992 30.5996 40.3992C30.7996 40.3992 30.8996 40.5992 30.9996 40.6992C31.0996 40.7992 31.1996 40.9992 31.2996 41.0992C31.3996 41.2992 31.3996 41.3992 31.3996 41.5992C31.3996 41.8992 31.2996 42.1992 31.1996 42.3992C31.0996 42.5992 30.8996 42.7992 30.6996 42.8992C30.4996 42.9992 30.2996 43.0992 29.9996 43.1992C29.6996 43.2992 29.4996 43.2992 29.1996 43.2992H27.1996V37.6992H27.0996ZM28.0996 39.9992H28.9996C29.2996 39.9992 29.5996 39.8992 29.7996 39.7992C29.9996 39.6992 30.0996 39.4992 30.0996 39.2992C30.0996 39.0992 29.9996 38.8992 29.7996 38.7992C29.5996 38.6992 29.2996 38.5992 28.9996 38.5992H28.1996V39.9992H28.0996ZM28.0996 42.4992H28.9996C29.0996 42.4992 29.2996 42.4992 29.3996 42.4992C29.4996 42.4992 29.6996 42.3992 29.7996 42.3992C29.8996 42.2992 29.9996 42.2992 30.0996 42.0992C30.1996 41.8992 30.1996 41.7992 30.1996 41.6992C30.1996 41.3992 30.0996 41.1992 29.8996 41.0992C29.6996 40.9992 29.3996 40.8992 28.9996 40.8992H27.9996V42.4992H28.0996Z" fill="white"/>
<path d="M32.3994 37.6992H34.2994C34.5994 37.6992 34.7994 37.6992 35.0994 37.7992C35.3994 37.8992 35.5994 37.8992 35.7994 38.0992C35.9994 38.1992 36.0994 38.3992 36.2994 38.5992C36.3994 38.7992 36.4994 39.0992 36.4994 39.3992C36.4994 39.7992 36.3994 39.9992 36.2994 40.2992C36.1994 40.4992 35.9994 40.6992 35.7994 40.7992C35.5994 40.8992 35.3994 40.9992 35.0994 40.9992C34.7994 40.9992 34.4994 41.0992 34.1994 41.0992H33.4994V43.3992H32.4994V37.6992H32.3994ZM34.0994 40.1992C34.1994 40.1992 34.3994 40.1992 34.4994 40.1992C34.5994 40.1992 34.7994 40.1992 34.8994 40.0992C34.9994 39.9992 35.0994 39.9992 35.1994 39.8992C35.2994 39.7992 35.2994 39.5992 35.2994 39.4992C35.2994 39.2992 35.2994 39.1992 35.1994 39.0992C35.0994 38.9992 34.9994 38.8992 34.8994 38.8992C34.7994 38.8992 34.6994 38.7992 34.4994 38.7992C34.2994 38.7992 34.1994 38.7992 34.0994 38.7992H33.3994V40.3992H34.0994V40.1992Z" fill="white"/>
</svg>
