<svg width="29" height="30" viewBox="0 0 29 30" fill="none" xmlns="http://www.w3.org/2000/svg">
    <path d="M28.3827 0.0772533C28.0072 -0.0799967 27.579 0.00800326 27.293 0.294003L24.321 3.266C21.6752 1.16125 18.4055 0.00100331 15 0.00100331C6.729 0.00100331 0 6.7295 0 15.001C0 23.2725 6.729 30.001 15 30.001C19.0063 30.001 22.7735 28.4405 25.6065 25.6075C25.9973 25.2168 25.9973 24.584 25.6065 24.1935C25.2157 23.803 24.583 23.8027 24.1925 24.1935C21.7367 26.6485 18.4722 28.001 15 28.001C7.8315 28.001 2 22.169 2 15.001C2 7.833 7.8315 2.001 15 2.001C17.8752 2.001 20.6413 2.95075 22.902 4.685L19.293 8.294C19.0068 8.58025 18.9215 9.00975 19.0763 9.38375C19.231 9.75775 19.5958 10.001 20 10.001H28C28.5522 10.001 29 9.55375 29 9.001V1.001C29 0.596753 28.7563 0.231503 28.3827 0.0772533ZM27 8.001H22.414L27 3.415V8.001Z" fill="#F2F2F2" />
</svg>
    