<svg width="29" height="30" viewBox="0 0 29 30" fill="none" xmlns="http://www.w3.org/2000/svg">
    <path d="M0.61725 0.0772533C0.99275 -0.0799967 1.421 0.00800326 1.707 0.294003L4.679 3.266C7.32475 1.16125 10.5945 0.00100331 14 0.00100331C22.271 0.00100331 29 6.7295 29 15.001C29 23.2725 22.271 30.001 14 30.001C9.99375 30.001 6.2265 28.4405 3.3935 25.6075C3.00275 25.2168 3.00275 24.584 3.3935 24.1935C3.78425 23.803 4.417 23.8027 4.8075 24.1935C7.26325 26.6485 10.5278 28.001 14 28.001C21.1685 28.001 27 22.169 27 15.001C27 7.833 21.1685 2.001 14 2.001C11.1248 2.001 8.35875 2.95075 6.098 4.685L9.707 8.294C9.99325 8.58025 10.0785 9.00975 9.92375 9.38375C9.769 9.75775 9.40425 10.001 9 10.001H1C0.44775 10.001 0 9.55375 0 9.001V1.001C0 0.596753 0.24375 0.231503 0.61725 0.0772533ZM2 8.001H6.586L2 3.415V8.001Z" fill="#F2F2F2" />
</svg>
    