<svg width="12" height="10" viewBox="0 0 12 10" fill="none" xmlns="http://www.w3.org/2000/svg">
    <path d="M0.863889 1.14484V0.0658431H3.30789V9.46484H2.11189V1.14484H0.863889ZM11.333 1.09284H6.76995V4.05684C6.96929 3.77951 7.26395 3.55418 7.65395 3.38084C8.04395 3.19884 8.46429 3.10784 8.91495 3.10784C9.63429 3.10784 10.2193 3.25951 10.67 3.56284C11.1206 3.85751 11.4413 4.24318 11.632 4.71984C11.8313 5.18784 11.931 5.68618 11.931 6.21484C11.931 6.83884 11.814 7.39784 11.58 7.89184C11.346 8.38584 10.9863 8.77584 10.501 9.06184C10.0243 9.34784 9.43062 9.49084 8.71995 9.49084C7.80995 9.49084 7.07329 9.25684 6.50995 8.78884C5.94662 8.32084 5.60429 7.69684 5.48295 6.91684H6.63995C6.75262 7.41084 6.99095 7.79651 7.35495 8.07384C7.71895 8.35118 8.17829 8.48984 8.73295 8.48984C9.41762 8.48984 9.93329 8.28618 10.28 7.87884C10.6266 7.46284 10.8 6.91684 10.8 6.24084C10.8 5.56484 10.6266 5.04484 10.28 4.68084C9.93329 4.30818 9.42195 4.12184 8.74595 4.12184C8.28662 4.12184 7.88362 4.23451 7.53695 4.45984C7.19895 4.67651 6.95195 4.97551 6.79595 5.35684H5.67795V0.0528433H11.333V1.09284Z" fill="#F2F2F2" />
</svg>