<svg width="25" height="24" viewBox="0 0 25 24" fill="none" xmlns="http://www.w3.org/2000/svg">
<path fill-rule="evenodd" clip-rule="evenodd" d="M9.5 13V12C9.5 10.346 10.846 9 12.5 9H13.5V5.667C13.5 5.299 13.201 5 12.833 5H6.167C5.799 5 5.5 5.299 5.5 5.667V12.333C5.5 12.701 5.799 13 6.167 13H9.5ZM9.5 15H6.167C4.696 15 3.5 13.804 3.5 12.333V5.667C3.5 4.196 4.696 3 6.167 3H12.833C14.304 3 15.5 4.196 15.5 5.667V9H18.5C20.154 9 21.5 10.346 21.5 12V18C21.5 19.654 20.154 21 18.5 21H12.5C10.846 21 9.5 19.654 9.5 18V15ZM11.5 12C11.5 11.449 11.949 11 12.5 11H18.5C19.052 11 19.5 11.449 19.5 12V18C19.5 18.551 19.052 19 18.5 19H12.5C11.949 19 11.5 18.551 11.5 18V12Z" fill="currentColor"/>
</svg>
