<svg width="16" height="16" viewBox="0 0 21 21" fill="none"
     xmlns="http://www.w3.org/2000/svg">
    <path d="M19.2463 0.646484H1.7313C1.13157 0.646845 0.645388 1.13326 0.645508 1.73324V19.2482C0.645868 19.8479 1.13229 20.3341 1.73226 20.334H11.1622V12.7205H8.6051V9.74042H11.1622V7.54732C11.1622 5.00407 12.7148 3.6198 14.9835 3.6198C16.0701 3.6198 17.0039 3.70079 17.2761 3.73696V6.39508H15.7117C14.4773 6.39508 14.2383 6.9816 14.2383 7.84244V9.74042H17.1895L16.805 12.7205H14.2383V20.334H19.2463C19.8463 20.3341 20.3329 19.8478 20.333 19.2477C20.333 19.2476 20.333 19.2475 20.333 19.2472V1.73228C20.3328 1.13254 19.8462 0.646364 19.2463 0.646484Z"
          fill="currentColor"/>
</svg>
