<svg width="20" height="20" viewBox="0 0 20 20" fill="none"
     xmlns="http://www.w3.org/2000/svg">
    <path d="M0.625 3.53201H10.1408C10.4276 4.83617 11.5934 5.81527 12.9837 5.81527C14.374 5.81527 15.5398 4.83621 15.8266 3.53201H19.375C19.7202 3.53201 20 3.25244 20 2.90761C20 2.56279 19.7202 2.28322 19.375 2.28322H15.8263C15.5389 0.979715 14.3716 0 12.9837 0C11.5951 0 10.4283 0.979559 10.1411 2.28322H0.625C0.279844 2.28322 0 2.56279 0 2.90761C0 3.25244 0.279844 3.53201 0.625 3.53201ZM11.3233 2.90925C11.3233 2.90703 11.3234 2.90476 11.3234 2.90254C11.3261 1.99065 12.0709 1.24883 12.9837 1.24883C13.8952 1.24883 14.6401 1.98964 14.644 2.9011L14.6441 2.91027C14.6427 3.82372 13.8984 4.56651 12.9837 4.56651C12.0694 4.56651 11.3254 3.82446 11.3233 2.91155L11.3233 2.90925ZM19.375 16.468H15.8263C15.5389 15.1645 14.3716 14.1847 12.9837 14.1847C11.5951 14.1847 10.4283 15.1643 10.1411 16.468H0.625C0.279844 16.468 0 16.7475 0 17.0923C0 17.4372 0.279844 17.7167 0.625 17.7167H10.1408C10.4276 19.0209 11.5934 20 12.9837 20C14.374 20 15.5398 19.0209 15.8266 17.7167H19.375C19.7202 17.7167 20 17.4372 20 17.0923C20 16.7475 19.7202 16.468 19.375 16.468ZM12.9837 18.7512C12.0694 18.7512 11.3254 18.0092 11.3233 17.0963L11.3233 17.094C11.3233 17.0917 11.3234 17.0895 11.3234 17.0873C11.3261 16.1754 12.0709 15.4335 12.9837 15.4335C13.8952 15.4335 14.6401 16.1743 14.644 17.0858L14.6441 17.0949C14.6428 18.0085 13.8985 18.7512 12.9837 18.7512ZM19.375 9.37561H9.85918C9.57238 8.07144 8.4066 7.09239 7.01629 7.09239C5.62598 7.09239 4.4602 8.07144 4.1734 9.37561H0.625C0.279844 9.37561 0 9.65518 0 10C0 10.3449 0.279844 10.6244 0.625 10.6244H4.17371C4.46109 11.9279 5.62844 12.9076 7.01629 12.9076C8.40488 12.9076 9.57172 11.928 9.85895 10.6244H19.375C19.7202 10.6244 20 10.3449 20 10C20 9.65518 19.7202 9.37561 19.375 9.37561ZM8.67668 9.99836C8.67668 10.0006 8.67664 10.0028 8.67664 10.0051C8.67391 10.917 7.9291 11.6588 7.01629 11.6588C6.10477 11.6588 5.35992 10.918 5.35598 10.0066L5.35586 9.99743C5.35723 9.08386 6.10156 8.34118 7.01629 8.34118C7.93059 8.34118 8.67465 9.08319 8.67672 9.99614L8.67668 9.99836Z"
          fill="#595959"/>
</svg>
