<svg width="25" height="21" viewBox="0 0 25 21" fill="none"
     xmlns="http://www.w3.org/2000/svg">
    <path d="M12.874 20.3437C12.2972 20.3442 11.7324 20.1802 11.2468 19.8712C9.86926 18.9924 7.2199 17.1888 4.97885 14.9865C2.22865 12.2817 0.833984 9.73434 0.833984 7.41341C0.833984 5.80067 1.31448 4.32302 2.22369 3.14067C3.08587 2.01644 4.30379 1.21245 5.6818 0.857881C7.05981 0.503307 8.51791 0.618725 9.82187 1.18559C10.989 1.68544 12.0299 2.52817 12.874 3.64653C13.7182 2.52544 14.7591 1.6827 15.9262 1.18559C17.2302 0.618725 18.6883 0.503307 20.0663 0.857881C21.4443 1.21245 22.6622 2.01644 23.5244 3.14067C24.4336 4.32302 24.9141 5.80067 24.9141 7.41341C24.9141 9.73434 23.5194 12.2806 20.7692 14.9843C18.5282 17.1866 15.8799 18.9902 14.5012 19.869C14.0159 20.1788 13.4511 20.3436 12.874 20.3437ZM7.26233 2.02669C6.82649 2.0263 6.39253 2.08331 5.97181 2.19622C4.91583 2.48394 3.9839 3.10707 3.31859 3.97028C2.59453 4.912 2.21156 6.10309 2.21156 7.41559C2.21156 9.35809 3.46847 11.5784 5.94811 14.0153C8.09714 16.1295 10.6578 17.8708 11.9913 18.7184C12.2546 18.8853 12.5605 18.974 12.8729 18.974C13.1854 18.974 13.4913 18.8853 13.7546 18.7184C15.0881 17.8686 17.6465 16.1273 19.7978 14.0153C22.2774 11.5784 23.5343 9.35809 23.5343 7.41559C23.5343 6.10309 23.1513 4.91419 22.4273 3.97028C21.762 3.10707 20.83 2.48394 19.7741 2.19622C17.8912 1.68872 15.2457 2.21919 13.4658 5.23028C13.4052 5.33318 13.3184 5.41853 13.2142 5.47784C13.11 5.53715 12.992 5.56836 12.8718 5.56836C12.7517 5.56836 12.6337 5.53715 12.5295 5.47784C12.4252 5.41853 12.3385 5.33318 12.2778 5.23028C10.8793 2.86012 8.94187 2.02669 7.26233 2.02669Z"
          fill="#DEDEDE"/>
</svg>
