<svg width="25" height="24" viewBox="0 0 25 24" fill="none" xmlns="http://www.w3.org/2000/svg">
<path d="M11.8076 5.53109L12.5 6.19555L13.1924 5.53109C14.1816 4.58184 15.5218 4 17 4C20.0376 4 22.5 6.46243 22.5 9.5C22.5 12.2834 20.9838 14.5027 19.0038 16.2217C17.023 17.9413 14.6823 19.0636 13.3058 19.6299C12.7837 19.8446 12.2163 19.8446 11.6942 19.6299C10.3177 19.0636 7.97697 17.9413 5.99618 16.2217C4.01619 14.5027 2.5 12.2834 2.5 9.5C2.5 6.46243 4.96243 4 8 4C9.47821 4 10.8184 4.58184 11.8076 5.53109Z" stroke="currentColor" stroke-width="2"/>
</svg>
