<svg width="25" height="21" viewBox="0 0 25 21" fill="none" xmlns="http://www.w3.org/2000/svg">
    <path d="M23.5244 3.14067C22.6622 2.01644 21.4443 1.21245 20.0663 0.857881C18.6883 0.503307 17.2302 0.618725 15.9262 1.18559C14.7591 1.68544 13.7182 2.52817 12.874 3.64653C12.0299 2.52544 10.989 1.6827 9.82187 1.18559C8.51791 0.618725 7.05981 0.503307 5.6818 0.857881C4.30379 1.21245 3.08587 2.01644 2.22369 3.14067C1.31448 4.32302 0.833984 5.80067 0.833984 7.41341C0.833984 9.73434 2.22865 12.2806 4.97885 14.9843C7.2199 17.1866 9.86816 18.9902 11.2468 19.869C11.7326 20.1776 12.2973 20.3416 12.874 20.3416C13.4508 20.3416 14.0155 20.1776 14.5012 19.869C15.8788 18.9902 18.5282 17.1866 20.7692 14.9843C23.5194 12.2817 24.9141 9.73434 24.9141 7.41341C24.9141 5.80067 24.4336 4.32302 23.5244 3.14067Z" fill="#F98A8A"/>
</svg>
