<svg width="16" height="16" viewBox="0 0 20 21" fill="none"
     xmlns="http://www.w3.org/2000/svg">
    <path fill-rule="evenodd" clip-rule="evenodd"
          d="M10.0003 3.33464C8.37347 3.33464 6.87379 3.46881 5.67008 3.62778C4.58676 3.77086 3.76988 4.58774 3.6268 5.67106C3.46783 6.87477 3.33366 8.37444 3.33366 10.0013C3.33366 11.6282 3.46783 13.1278 3.6268 14.3315C3.76988 15.4149 4.58676 16.2317 5.67008 16.3748C6.87379 16.5338 8.37347 16.668 10.0003 16.668C11.6272 16.668 13.1269 16.5338 14.3306 16.3748C15.4139 16.2317 16.2308 15.4149 16.3738 14.3315C16.5328 13.1278 16.667 11.6282 16.667 10.0013C16.667 8.37444 16.5328 6.87477 16.3738 5.67106C16.2308 4.58774 15.4139 3.77086 14.3306 3.62778C13.1269 3.46881 11.6272 3.33464 10.0003 3.33464ZM5.45186 1.97546C3.6212 2.21724 2.21626 3.62217 1.97449 5.45283C1.80827 6.71137 1.66699 8.2857 1.66699 10.0013C1.66699 11.7169 1.80827 13.2912 1.97449 14.5498C2.21626 16.3804 3.62119 17.7854 5.45186 18.0271C6.71039 18.1934 8.28472 18.3346 10.0003 18.3346C11.7159 18.3346 13.2903 18.1934 14.5488 18.0271C16.3795 17.7854 17.7844 16.3804 18.0262 14.5498C18.1924 13.2912 18.3337 11.7169 18.3337 10.0013C18.3337 8.2857 18.1924 6.71137 18.0262 5.45284C17.7844 3.62217 16.3795 2.21724 14.5488 1.97546C13.2903 1.80925 11.7159 1.66797 10.0003 1.66797C8.28472 1.66797 6.71039 1.80925 5.45186 1.97546Z"
          fill="currentColor"/>
    <path d="M7.49953 9.16927C8.42001 9.16927 9.1662 8.42308 9.1662 7.5026C9.1662 6.58213 8.42001 5.83594 7.49953 5.83594C6.57906 5.83594 5.83287 6.58213 5.83287 7.5026C5.83287 8.42308 6.57906 9.16927 7.49953 9.16927Z"
          fill="currentColor"/>
    <path d="M15.1006 10.592L16.5959 12.0873C16.5443 12.8675 16.469 13.5914 16.3859 14.2343L13.9221 11.7705C13.5967 11.4451 13.069 11.4451 12.7436 11.7705L10.934 13.5802C9.95765 14.5565 8.37474 14.5565 7.39843 13.5802L7.25545 13.4372C6.93001 13.1118 6.40238 13.1118 6.07694 13.4372L4.06939 15.4447C3.83682 15.1294 3.68122 14.751 3.626 14.3328C3.59588 14.1048 3.56665 13.8662 3.53906 13.618L4.89843 12.2587C5.87474 11.2824 7.45765 11.2824 8.43396 12.2587L8.57694 12.4017C8.90238 12.7271 9.43002 12.7271 9.75545 12.4017L11.5651 10.592C12.5414 9.6157 14.1243 9.61571 15.1006 10.592Z"
          fill="currentColor"/>
</svg>
