<svg width="16" height="16" viewBox="0 -0.5 22 22" fill="none"
     xmlns="http://www.w3.org/2000/svg">
    <path d="M21.9784 6.17406C21.9269 5.05825 21.7378 4.29114 21.467 3.62643C21.1877 2.92085 20.7579 2.28915 20.1948 1.76402C19.6447 1.23071 18.9786 0.816306 18.2479 0.553819C17.5476 0.295338 16.7481 0.114898 15.5792 0.0657019C14.4015 0.0123391 14.0276 0 11.0407 0C8.05381 0 7.67994 0.0123391 6.50663 0.0615355C5.33769 0.110732 4.53405 0.291332 3.83785 0.549653C3.09851 0.816306 2.43673 1.22654 1.88659 1.76402C1.32789 2.28915 0.89392 2.92502 0.618765 3.62242C0.347976 4.29114 0.158944 5.05408 0.107405 6.16989C0.0515009 7.29403 0.0385742 7.65091 0.0385742 10.5021C0.0385742 13.3532 0.0515009 13.7101 0.10304 14.83C0.154579 15.9459 0.343779 16.713 0.614568 17.3777C0.89392 18.0833 1.32789 18.715 1.88659 19.2401C2.43673 19.7734 3.10288 20.1878 3.83349 20.4503C4.53405 20.7088 5.33332 20.8892 6.50243 20.9384C7.67558 20.9878 8.04961 20.9999 11.0365 20.9999C14.0234 20.9999 14.3973 20.9878 15.5706 20.9384C16.7396 20.8892 17.5432 20.7088 18.2394 20.4503C19.7179 19.9046 20.8868 18.7888 21.4585 17.3777C21.7291 16.709 21.9183 15.9459 21.9698 14.83C22.0214 13.7101 22.0343 13.3532 22.0343 10.5021C22.0343 7.65091 22.0299 7.29403 21.9784 6.17406ZM19.9973 14.748C19.9499 15.7736 19.7694 16.3274 19.619 16.6966C19.2493 17.6115 18.4887 18.3376 17.5303 18.6904C17.1435 18.834 16.5591 19.0063 15.4889 19.0513C14.3285 19.1007 13.9805 19.1128 11.0451 19.1128C8.10971 19.1128 7.75733 19.1007 6.60115 19.0513C5.52672 19.0063 4.94653 18.834 4.55973 18.6904C4.08279 18.5222 3.64865 18.2555 3.29627 17.9068C2.93097 17.5663 2.65162 17.1561 2.47534 16.7008C2.32492 16.3316 2.14445 15.7736 2.09728 14.7522C2.04557 13.6445 2.03281 13.3122 2.03281 10.5102C2.03281 7.70828 2.04557 7.37192 2.09728 6.26844C2.14445 5.24285 2.32492 4.68903 2.47534 4.31982C2.65162 3.86439 2.93097 3.45015 3.30064 3.11363C3.65721 2.76493 4.08699 2.49828 4.5641 2.33017C4.95089 2.18659 5.53545 2.01432 6.60551 1.96913C7.76589 1.91994 8.11408 1.9076 11.0493 1.9076C13.989 1.9076 14.337 1.91994 15.4932 1.96913C16.5676 2.01432 17.1478 2.18659 17.5346 2.33017C18.0116 2.49828 18.4457 2.76493 18.7981 3.11363C19.1634 3.45416 19.4427 3.86439 19.619 4.31982C19.7694 4.68903 19.9499 5.24686 19.9973 6.26844C20.0488 7.37608 20.0617 7.70828 20.0617 10.5102C20.0617 13.3122 20.0488 13.6404 19.9973 14.748Z"
          fill="currentColor"/>
    <path d="M11.0407 5.10742C7.92061 5.10742 5.38916 7.52365 5.38916 10.502C5.38916 13.4804 7.92061 15.8966 11.0407 15.8966C14.1609 15.8966 16.6921 13.4804 16.6921 10.502C16.6921 7.52365 14.1609 5.10742 11.0407 5.10742ZM11.0407 14.0014C9.01653 14.0014 7.37467 12.4343 7.37467 10.502C7.37467 8.56975 9.01653 7.00268 11.0407 7.00268C13.0649 7.00268 14.7066 8.56975 14.7066 10.502C14.7066 12.4343 13.0649 14.0014 11.0407 14.0014Z"
          fill="currentColor"/>
    <path d="M18.2351 4.89416C18.2351 5.58964 17.6443 6.15355 16.9156 6.15355C16.187 6.15355 15.5962 5.58964 15.5962 4.89416C15.5962 4.19852 16.187 3.63477 16.9156 3.63477C17.6443 3.63477 18.2351 4.19852 18.2351 4.89416Z"
          fill="currentColor"/>
</svg>
