<svg width="21" height="21" viewBox="0 0 21 21" fill="none"
     xmlns="http://www.w3.org/2000/svg">
    <path d="M3.034 1.06641C1.59036 1.06641 0.646484 2.01437 0.646484 3.26034C0.646484 4.47879 1.56225 5.4538 2.97861 5.4538H3.006C4.47788 5.4538 5.39388 4.47879 5.39388 3.26034C5.36637 2.01437 4.47788 1.06641 3.034 1.06641Z"
          fill="currentColor"/>
    <path d="M0.895508 7.1875H5.11587V19.8846H0.895508V7.1875Z"
          fill="currentColor"/>
    <path d="M15.4751 6.88867C13.1983 6.88867 11.6717 9.02805 11.6717 9.02805V7.18668H7.45117V19.8838H11.6714V12.7932C11.6714 12.4136 11.6989 12.0347 11.8104 11.7632C12.1155 11.0052 12.8098 10.22 13.9758 10.22C15.5029 10.22 16.1137 11.3843 16.1137 13.0912V19.8838H20.3337V12.6035C20.3337 8.70349 18.2515 6.88867 15.4751 6.88867Z"
          fill="currentColor"/>
</svg>
