<svg width="16" height="16" viewBox="0 0 20 21" fill="none"
     xmlns="http://www.w3.org/2000/svg">
    <path fill-rule="evenodd" clip-rule="evenodd"
          d="M9.19058 12.5032C9.65049 12.4858 10.0374 12.8446 10.0548 13.3045C10.0939 14.3413 10.1489 15.0981 10.2029 15.6406C10.2562 16.175 10.5787 16.4964 11.0284 16.5514C11.5586 16.6162 12.3065 16.6693 13.3329 16.6693C14.3593 16.6693 15.1073 16.6162 15.6375 16.5514C16.0869 16.4965 16.4096 16.1748 16.4629 15.6404C16.5632 14.6333 16.6662 12.8933 16.6662 10.0026C16.6662 7.11192 16.5632 5.37195 16.4629 4.36483C16.4096 3.83038 16.0869 3.50874 15.6375 3.4538C15.1073 3.38898 14.3593 3.33594 13.3329 3.33594C12.3065 3.33594 11.5586 3.38898 11.0284 3.45379C10.5787 3.50876 10.2562 3.83025 10.2029 4.36458C10.1489 4.90715 10.0939 5.66388 10.0548 6.70071C10.0374 7.16062 9.65049 7.51937 9.19058 7.50201C8.73067 7.48465 8.37191 7.09774 8.38928 6.63783C8.42945 5.57364 8.48641 4.78213 8.54447 4.19936C8.66651 2.97423 9.52068 1.95902 10.8261 1.79944C11.4338 1.72516 12.2503 1.66927 13.3329 1.66927C14.4156 1.66927 15.232 1.72516 15.8397 1.79945C17.1453 1.95905 17.9993 2.97473 18.1213 4.19963C18.2288 5.27817 18.3329 7.07633 18.3329 10.0026C18.3329 12.9289 18.2288 14.727 18.1213 15.8056C17.9993 17.0305 17.1453 18.0462 15.8397 18.2058C15.232 18.28 14.4156 18.3359 13.3329 18.3359C12.2503 18.3359 11.4338 18.28 10.8261 18.2058C9.52069 18.0462 8.66651 17.031 8.54447 15.8058C8.48641 15.2231 8.42945 14.4316 8.38928 13.3674C8.37191 12.9075 8.73067 12.5206 9.19058 12.5032Z"
          fill="currentColor"/>
    <path fill-rule="evenodd" clip-rule="evenodd"
          d="M6.00625 12.3294C6.33169 12.6548 6.33169 13.1824 6.00625 13.5079C5.68081 13.8333 5.15317 13.8333 4.82774 13.5079L1.91107 10.5912C1.58563 10.2658 1.58563 9.73813 1.91107 9.4127L4.82774 6.49603C5.15317 6.17059 5.68081 6.17059 6.00625 6.49603C6.33169 6.82147 6.33169 7.34911 6.00625 7.67454L4.51217 9.16862H12.5003C12.9606 9.16862 13.3337 9.54172 13.3337 10.002C13.3337 10.4622 12.9606 10.8353 12.5003 10.8353L4.51217 10.8353L6.00625 12.3294Z"
          fill="currentColor"/>
</svg>
