<svg width="20" height="20" viewBox="0 0 20 20" fill="none" xmlns="http://www.w3.org/2000/svg">
<path fill-rule="evenodd" clip-rule="evenodd" d="M0.390524 0.390525C0.911223 -0.130175 1.75544 -0.130175 2.27614 0.390525L9.33333 7.44772L16.3905 0.390524C16.9112 -0.130175 17.7554 -0.130175 18.2761 0.390524C18.7968 0.911223 18.7968 1.75544 18.2761 2.27614L11.219 9.33333L18.2761 16.3905C18.7968 16.9112 18.7968 17.7554 18.2761 18.2761C17.7554 18.7968 16.9112 18.7968 16.3905 18.2761L9.33333 11.219L2.27614 18.2761C1.75544 18.7968 0.911224 18.7968 0.390525 18.2761C-0.130175 17.7554 -0.130175 16.9112 0.390525 16.3905L7.44772 9.33333L0.390524 2.27614C-0.130175 1.75544 -0.130175 0.911224 0.390524 0.390525Z" fill="#777E91"/>
</svg>
