<svg width="24" height="24" viewBox="0 0 24 24" fill="none" xmlns="http://www.w3.org/2000/svg">
<path fill-rule="evenodd" clip-rule="evenodd" d="M12 20C16.4183 20 20 16.4183 20 12C20 7.58172 16.4183 4 12 4C7.58172 4 4 7.58172 4 12C4 16.4183 7.58172 20 12 20ZM12 22C17.5228 22 22 17.5228 22 12C22 6.47715 17.5228 2 12 2C6.47715 2 2 6.47715 2 12C2 17.5228 6.47715 22 12 22Z" fill="#777E91"/>
<path fill-rule="evenodd" clip-rule="evenodd" d="M8.8779 9.85385C8.29729 10.9183 8.27861 12.3212 8.89442 13.5528C9.1414 14.0468 8.94118 14.6474 8.4472 14.8944C7.95322 15.1414 7.35255 14.9412 7.10556 14.4472C6.22139 12.6788 6.20272 10.5817 7.12212 8.89615C8.06434 7.16875 9.92096 6 12.5 6C14.457 6 15.9423 6.88195 16.8692 8.16961C17.7746 9.42758 18.1239 11.0338 17.9538 12.5192C17.7836 14.0056 17.0762 15.4847 15.7299 16.3746C14.5809 17.134 13.1012 17.3769 11.3753 16.9852L10.4635 20.2676C10.3157 20.7998 9.76448 21.1113 9.23235 20.9635C8.70021 20.8157 8.38866 20.2645 8.53648 19.7324L9.71581 15.4868C9.71753 15.4804 9.71931 15.4739 9.72117 15.4675L11.0365 10.7324C11.1843 10.2002 11.7355 9.88867 12.2677 10.0365C12.7998 10.1843 13.1113 10.7355 12.9635 11.2676L11.9112 15.056C13.1622 15.3211 14.0396 15.0944 14.627 14.7061C15.37 14.215 15.8472 13.3358 15.9668 12.2917C16.0864 11.2467 15.8305 10.1502 15.2459 9.33801C14.6827 8.55555 13.7931 8 12.5 8C10.5791 8 9.43569 8.83125 8.8779 9.85385Z" fill="#777E91"/>
</svg>
