<svg width="25" height="24" viewBox="0 0 25 24" fill="none" xmlns="http://www.w3.org/2000/svg">
<path fill-rule="evenodd" clip-rule="evenodd" d="M9.49858 10.0405C9.52798 10.592 9.10474 11.063 8.55324 11.0924C7.80055 11.1325 7.2044 11.1816 6.73854 11.2307C6.11292 11.2967 5.73278 11.681 5.66959 12.2337C5.57886 13.0274 5.5 14.2284 5.5 16.0007C5.5 17.7729 5.57886 18.974 5.66959 19.7676C5.73289 20.3213 6.11207 20.7045 6.73675 20.7705C7.83078 20.8859 9.63925 21.0007 12.5 21.0007C15.3608 21.0007 17.1692 20.8859 18.2632 20.7705C18.8879 20.7045 19.2671 20.3213 19.3304 19.7676C19.4211 18.974 19.5 17.7729 19.5 16.0007C19.5 14.2284 19.4211 13.0274 19.3304 12.2337C19.2672 11.681 18.8871 11.2967 18.2615 11.2307C17.7956 11.1816 17.1995 11.1325 16.4468 11.0924C15.8953 11.063 15.472 10.592 15.5014 10.0405C15.5308 9.48904 16.0017 9.06579 16.5532 9.09519C17.3361 9.13693 17.9669 9.18854 18.4712 9.24173C19.9556 9.39828 21.1397 10.4514 21.3175 12.0066C21.4188 12.893 21.5 14.1722 21.5 16.0007C21.5 17.8292 21.4188 19.1084 21.3175 19.9948C21.1398 21.549 19.9585 22.6027 18.4732 22.7594C17.2919 22.8841 15.4108 23.0007 12.5 23.0007C9.58922 23.0007 7.70806 22.8841 6.52684 22.7594C5.04151 22.6027 3.86021 21.5491 3.68253 19.9948C3.5812 19.1084 3.5 17.8292 3.5 16.0007C3.5 14.1722 3.5812 12.893 3.68253 12.0066C3.86031 10.4514 5.04436 9.39828 6.52877 9.24173C7.03306 9.18854 7.66393 9.13693 8.44676 9.09519C8.99827 9.06579 9.46918 9.48904 9.49858 10.0405Z" fill="currentColor"/>
<path fill-rule="evenodd" clip-rule="evenodd" d="M9.70711 6.20711C9.31658 6.59763 8.68342 6.59763 8.29289 6.20711C7.90237 5.81658 7.90237 5.18342 8.29289 4.79289L11.7929 1.29289C12.1834 0.902369 12.8166 0.902369 13.2071 1.29289L16.7071 4.79289C17.0976 5.18342 17.0976 5.81658 16.7071 6.20711C16.3166 6.59763 15.6834 6.59763 15.2929 6.20711L13.5 4.41421V14C13.5 14.5523 13.0523 15 12.5 15C11.9477 15 11.5 14.5523 11.5 14V4.41421L9.70711 6.20711Z" fill="currentColor"/>
</svg>
