<svg width="16" height="16" viewBox="0 0 22 24" fill="none"
     xmlns="http://www.w3.org/2000/svg">
    <path d="M15.3323 24H6.66769C5.8008 23.987 4.97059 23.6349 4.34308 23.0141C3.71556 22.3933 3.33699 21.5496 3.28308 20.6517L2.25641 4.44878C2.25115 4.3313 2.26838 4.21391 2.30711 4.10339C2.34584 3.99287 2.4053 3.89141 2.48205 3.80488C2.56112 3.7152 2.65685 3.64305 2.76349 3.59275C2.87013 3.54245 2.98546 3.51505 3.10256 3.5122H18.8974C19.0135 3.51193 19.1283 3.53642 19.2348 3.58417C19.3413 3.63191 19.4373 3.70187 19.5166 3.78971C19.596 3.87755 19.6571 3.98138 19.6961 4.09476C19.7352 4.20814 19.7513 4.32865 19.7436 4.44878L18.7621 20.6517C18.7076 21.5576 18.3226 22.408 17.6856 23.03C17.0485 23.6519 16.207 23.9988 15.3323 24ZM4.05026 5.26829L4.91897 20.5463C4.94768 21.007 5.14451 21.4391 5.4694 21.7544C5.79429 22.0698 6.2228 22.2449 6.66769 22.2439H15.3323C15.7764 22.2421 16.2034 22.0661 16.5278 21.7513C16.8521 21.4365 17.0497 21.006 17.081 20.5463L17.9949 5.32683L4.05026 5.26829Z"
          fill="#A6A6A6"/>
    <path d="M21.1538 5.26829H0.846154C0.62174 5.26829 0.406517 5.17578 0.247833 5.01112C0.089148 4.84645 0 4.62312 0 4.39024C0 4.15737 0.089148 3.93404 0.247833 3.76937C0.406517 3.6047 0.62174 3.5122 0.846154 3.5122H21.1538C21.3783 3.5122 21.5935 3.6047 21.7522 3.76937C21.9109 3.93404 22 4.15737 22 4.39024C22 4.62312 21.9109 4.84645 21.7522 5.01112C21.5935 5.17578 21.3783 5.26829 21.1538 5.26829Z"
          fill="#A6A6A6"/>
    <path d="M14.3846 5.26829H7.61539C7.39188 5.26526 7.17835 5.17178 7.0203 5.00777C6.86224 4.84375 6.77215 4.62217 6.76923 4.39024V2.28293C6.78353 1.68213 7.01991 1.11004 7.42943 0.685085C7.83895 0.260127 8.39026 0.0148412 8.96923 0H13.0308C13.6194 0.0152746 14.1789 0.268691 14.59 0.706156C15.001 1.14362 15.231 1.73048 15.2308 2.34146V4.39024C15.2278 4.62217 15.1378 4.84375 14.9797 5.00777C14.8217 5.17178 14.6081 5.26526 14.3846 5.26829ZM8.46154 3.5122H13.5385V2.34146C13.5385 2.20174 13.485 2.06774 13.3898 1.96894C13.2946 1.87014 13.1654 1.81463 13.0308 1.81463H8.96923C8.83458 1.81463 8.70545 1.87014 8.61024 1.96894C8.51503 2.06774 8.46154 2.20174 8.46154 2.34146V3.5122Z"
          fill="#A6A6A6"/>
    <path d="M14.3846 19.3171C14.1611 19.314 13.9476 19.2206 13.7895 19.0565C13.6315 18.8925 13.5414 18.671 13.5385 18.439V9.07317C13.5385 8.8403 13.6276 8.61696 13.7863 8.4523C13.945 8.28763 14.1602 8.19512 14.3846 8.19512C14.609 8.19512 14.8243 8.28763 14.9829 8.4523C15.1416 8.61696 15.2308 8.8403 15.2308 9.07317V18.439C15.2278 18.671 15.1378 18.8925 14.9797 19.0565C14.8217 19.2206 14.6081 19.314 14.3846 19.3171Z"
          fill="#A6A6A6"/>
    <path d="M7.61539 19.3171C7.39188 19.314 7.17835 19.2206 7.0203 19.0565C6.86224 18.8925 6.77215 18.671 6.76923 18.439V9.07317C6.76923 8.8403 6.85838 8.61696 7.01706 8.4523C7.17575 8.28763 7.39097 8.19512 7.61539 8.19512C7.8398 8.19512 8.05502 8.28763 8.21371 8.4523C8.37239 8.61696 8.46154 8.8403 8.46154 9.07317V18.439C8.45862 18.671 8.36853 18.8925 8.21047 19.0565C8.05242 19.2206 7.83889 19.314 7.61539 19.3171Z"
          fill="#A6A6A6"/>
    <path d="M11 19.3171C10.7765 19.314 10.563 19.2206 10.4049 19.0565C10.2469 18.8925 10.1568 18.671 10.1538 18.439V9.07317C10.1538 8.8403 10.243 8.61696 10.4017 8.4523C10.5604 8.28763 10.7756 8.19512 11 8.19512C11.2244 8.19512 11.4396 8.28763 11.5983 8.4523C11.757 8.61696 11.8462 8.8403 11.8462 9.07317V18.439C11.8432 18.671 11.7531 18.8925 11.5951 19.0565C11.437 19.2206 11.2235 19.314 11 19.3171Z"
          fill="#A6A6A6"/>
</svg>
