<svg width="16" height="16" viewBox="0 0 21 21" fill="none"
     xmlns="http://www.w3.org/2000/svg">
    <path d="M6.84148 18.383C14.2711 18.383 18.3341 12.2277 18.3341 6.89039C18.3341 6.71557 18.3305 6.54148 18.3226 6.36834C19.1112 5.79814 19.7967 5.08659 20.3375 4.27667C19.6138 4.59849 18.8348 4.81485 18.0179 4.91273C18.8518 4.41248 19.4921 3.62147 19.794 2.67851C19.0136 3.1412 18.1493 3.47735 17.2292 3.65891C16.4921 2.8738 15.4426 2.38281 14.2806 2.38281C12.0501 2.38281 10.2412 4.19167 10.2412 6.42144C10.2412 6.73857 10.2767 7.04679 10.3459 7.34248C6.98885 7.17356 4.01189 5.56637 2.01991 3.1223C1.67316 3.71911 1.47306 4.4126 1.47306 5.15257C1.47306 6.55376 2.18618 7.79109 3.27048 8.51468C2.60781 8.49433 1.98536 8.31241 1.44116 8.00961C1.44056 8.02658 1.44056 8.04308 1.44056 8.06114C1.44056 10.0174 2.83284 11.6507 4.68131 12.0208C4.34178 12.1131 3.98456 12.1629 3.61615 12.1629C3.35633 12.1629 3.10301 12.1373 2.85692 12.09C3.37114 13.6949 4.86238 14.8628 6.63031 14.8955C5.24778 15.9791 3.50622 16.6246 1.61345 16.6246C1.28789 16.6246 0.966067 16.6059 0.649902 16.5686C2.43757 17.7144 4.56031 18.3831 6.8416 18.3831"
          fill="currentColor"/>
</svg>
