<svg width="16" height="16" viewBox="0 0 16 16" fill="none" xmlns="http://www.w3.org/2000/svg">
    <path fill-rule="evenodd" clip-rule="evenodd" d="M7.99967 2.66732C6.69819 2.66732 5.49845 2.77465 4.53548 2.90183C3.66882 3.01629 3.01532 3.6698 2.90086 4.53646C2.77368 5.49943 2.66634 6.69916 2.66634 8.00065C2.66634 9.30214 2.77368 10.5019 2.90086 11.4648C3.01532 12.3315 3.66882 12.985 4.53548 13.0995C5.49845 13.2266 6.69819 13.334 7.99967 13.334C9.30116 13.334 10.5009 13.2266 11.4639 13.0995C12.3305 12.985 12.984 12.3315 13.0985 11.4648C13.2257 10.5019 13.333 9.30214 13.333 8.00065C13.333 6.69916 13.2257 5.49943 13.0985 4.53646C12.984 3.6698 12.3305 3.01629 11.4639 2.90183C10.5009 2.77465 9.30116 2.66732 7.99967 2.66732ZM4.3609 1.57998C2.89637 1.7734 1.77242 2.89735 1.579 4.36188C1.44603 5.36871 1.33301 6.62817 1.33301 8.00065C1.33301 9.37313 1.44603 10.6326 1.579 11.6394C1.77242 13.104 2.89637 14.2279 4.3609 14.4213C5.36773 14.5543 6.62719 14.6673 7.99967 14.6673C9.37216 14.6673 10.6316 14.5543 11.6384 14.4213C13.103 14.2279 14.2269 13.104 14.4203 11.6394C14.5533 10.6326 14.6663 9.37314 14.6663 8.00065C14.6663 6.62817 14.5533 5.36871 14.4203 4.36188C14.2269 2.89735 13.103 1.7734 11.6384 1.57998C10.6316 1.44701 9.37216 1.33398 7.99967 1.33398C6.62719 1.33398 5.36773 1.44701 4.3609 1.57998Z" fill="currentColor"/>
    <path d="M6.00041 7.33268C6.73679 7.33268 7.33374 6.73573 7.33374 5.99935C7.33374 5.26297 6.73679 4.66602 6.00041 4.66602C5.26403 4.66602 4.66707 5.26297 4.66707 5.99935C4.66707 6.73573 5.26403 7.33268 6.00041 7.33268Z" fill="currentColor"/>
    <path d="M12.0813 8.47088L13.2775 9.66709C13.2362 10.2912 13.176 10.8704 13.1095 11.3847L11.1385 9.41369C10.8781 9.15334 10.456 9.15334 10.1957 9.41369L8.74795 10.8614C7.9669 11.6425 6.70057 11.6424 5.91952 10.8614L5.80514 10.747C5.54479 10.4867 5.12268 10.4867 4.86233 10.747L3.25629 12.3531C3.07024 12.1008 2.94576 11.7981 2.90158 11.4635C2.87749 11.2811 2.8541 11.0902 2.83203 10.8917L3.91953 9.80421C4.70057 9.02316 5.9669 9.02316 6.74795 9.80421L6.86233 9.91859C7.12268 10.1789 7.54479 10.1789 7.80514 9.91859L9.25286 8.47088C10.0339 7.68983 11.3002 7.68983 12.0813 8.47088Z" fill="currentColor"/>
</svg>
