<svg width="16" height="16" viewBox="0 0 20 21" fill="none"
     xmlns="http://www.w3.org/2000/svg">
    <path fill-rule="evenodd" clip-rule="evenodd"
          d="M10 10.8346C6.77834 10.8346 4.16667 13.4463 4.16667 16.668V18.3346C4.16667 18.7949 3.79357 19.168 3.33333 19.168C2.8731 19.168 2.5 18.7949 2.5 18.3346V16.668C2.5 12.5258 5.85786 9.16797 10 9.16797C14.1421 9.16797 17.5 12.5258 17.5 16.668V18.3346C17.5 18.7949 17.1269 19.168 16.6667 19.168C16.2064 19.168 15.8333 18.7949 15.8333 18.3346V16.668C15.8333 13.4463 13.2217 10.8346 10 10.8346Z"
          fill="currentColor"/>
    <path fill-rule="evenodd" clip-rule="evenodd"
          d="M10 9.16927C11.8409 9.16927 13.3333 7.67689 13.3333 5.83594C13.3333 3.99499 11.8409 2.5026 10 2.5026C8.15905 2.5026 6.66667 3.99499 6.66667 5.83594C6.66667 7.67689 8.15905 9.16927 10 9.16927ZM10 10.8359C12.7614 10.8359 15 8.59736 15 5.83594C15 3.07451 12.7614 0.835938 10 0.835938C7.23858 0.835938 5 3.07451 5 5.83594C5 8.59736 7.23858 10.8359 10 10.8359Z"
          fill="currentColor"/>
</svg>
