<svg width="16" height="16" viewBox="0 0 45 45" fill="none" xmlns="http://www.w3.org/2000/svg">
    <path d="M40.5554 35.9098C38.4569 33.1003 35.7321 30.8191 32.5975 29.2473C29.4629 27.6755 26.0049 26.8566 22.4983 26.8555C18.9917 26.8544 15.5332 27.6712 12.3976 29.241C9.26197 30.8108 6.53575 33.0903 4.43555 35.8984C6.52507 38.7208 9.24684 41.0142 12.3826 42.5949C15.5184 44.1756 18.9809 44.9995 22.4926 45.0006C26.0043 45.0017 29.4673 44.18 32.6041 42.6013C35.7409 41.0225 38.4641 38.7308 40.5554 35.9098Z" fill="#A6A6A6"/>
    <path d="M22.4997 23.9525C27.3099 23.9525 31.2094 20.0531 31.2094 15.2429C31.2094 10.4327 27.3099 6.5332 22.4997 6.5332C17.6895 6.5332 13.79 10.4327 13.79 15.2429C13.79 20.0531 17.6895 23.9525 22.4997 23.9525Z" fill="#A6A6A6"/>
</svg>
