<svg width="20" height="20" viewBox="0 0 20 20" fill="none"
     xmlns="http://www.w3.org/2000/svg">
    <path opacity="0.6"
          d="M0.60908 19.4151C0.983216 19.7896 1.49058 20 2.01961 20C2.54864 20 3.05601 19.7896 3.43015 19.4151L10 12.8371L16.5699 19.4151C16.9461 19.779 17.4501 19.9804 17.9732 19.9758C18.4963 19.9713 18.9967 19.7612 19.3666 19.3908C19.7365 19.0204 19.9463 18.5194 19.9509 17.9956C19.9554 17.4719 19.7543 16.9673 19.3909 16.5905L12.8211 10.0125L19.3909 3.43443C19.5815 3.25016 19.7335 3.02974 19.838 2.78602C19.9426 2.54231 19.9976 2.28018 19.9999 2.01495C20.0022 1.74971 19.9517 1.48667 19.8514 1.24117C19.7511 0.995673 19.603 0.772639 19.4156 0.58508C19.2283 0.397521 19.0056 0.249194 18.7604 0.148753C18.5152 0.0483125 18.2525 -0.00222943 17.9876 7.5423e-05C17.7227 0.00238027 17.4609 0.0574863 17.2175 0.162178C16.974 0.26687 16.7539 0.41905 16.5699 0.609841L10 7.1879L3.43015 0.609841C3.2461 0.41905 3.02596 0.26687 2.78255 0.162178C2.53914 0.0574863 2.27734 0.00238027 2.01243 7.5423e-05C1.74753 -0.00222943 1.48481 0.0483125 1.23962 0.148753C0.994432 0.249194 0.771675 0.397521 0.58435 0.58508C0.397025 0.772639 0.248883 0.995673 0.148567 1.24117C0.0482523 1.48667 -0.00222665 1.74971 7.5329e-05 2.01495C0.0023773 2.28018 0.0574146 2.54231 0.161976 2.78602C0.266537 3.02974 0.418528 3.25016 0.60908 3.43443L7.17893 10.0125L0.60908 16.5905C0.235057 16.9651 0.0249423 17.4732 0.0249423 18.0028C0.0249423 18.5325 0.235057 19.0405 0.60908 19.4151Z"
          fill="currentColor"/>
</svg>
